<svg id="Layer_1" data-name="Layer 1" xmlns="http://www.w3.org/2000/svg" viewBox="0 0 198.64 56.32"><defs><style>.cls-1{font-size:33.44px;font-family:Arial, HelveticaNeue-Bold, Helvetica Neue;font-weight:700;letter-spacing:-0.05em;}.cls-1,.cls-2,.cls-4{fill:#3755be;}.cls-2{stroke:#3755be;stroke-miterlimit:10;}.cls-3{fill:#fff;}</style></defs><text class="cls-1" transform="translate(44.1 36.53) scale(1.15 1.23)">Indemn</text><path class="cls-2" d="M526.79,417.14c-1.53,0-3.82,0-6.6-.14s-4.63-.16-5.52-.27c-5.95-.7-13.9-8.52-13.74-17.77a17.7,17.7,0,0,1,4-10.64c5.41-6.78,13.7-7.36,16.17-7.41,1,0,13.14-.07,18.58,9.16a17.18,17.18,0,0,1,1.89,13.2A16.07,16.07,0,0,1,538,409.6" transform="translate(-500.43 -380.41)"/><path class="cls-2" d="M538,409.6l3.66,7.54H526.79" transform="translate(-500.43 -380.41)"/><g id="ASEMeY.tif"><path class="cls-3" d="M529.88,385.78a3.06,3.06,0,0,1-.6,1.29,2.52,2.52,0,0,1-1.89.94c-.5,0-1,0-1.51,0a1.86,1.86,0,0,0-2,2v17.66a1.86,1.86,0,0,0,2,2h1.33a2.6,2.6,0,0,1,2.61,2.16s0,.05,0,.08v1.49h-7.39s-.06,0-.09,0a2.47,2.47,0,0,1-1.3-.6c-.2-.17-.34-.4-.53-.59a2.65,2.65,0,0,1-1.14,1c-.23.09-.47.16-.71.24h-4.23a.55.55,0,0,1-.24-.52,3.53,3.53,0,0,1,.3-1.81,2.54,2.54,0,0,1,2.28-1.39c1,0,2.06,0,3.09,0h.27V388.05a.47.47,0,0,0-.26,0h-3a2.61,2.61,0,0,1-2.64-2.64c0-.22,0-.45,0-.67s.13-.41.39-.41c1.3,0,2.59,0,3.88,0a2.6,2.6,0,0,1,2.42,2.48v.49a3.57,3.57,0,0,1,1.18.13,3.06,3.06,0,0,1,1,.64v-.38a10.11,10.11,0,0,1,0-1.23,2.6,2.6,0,0,1,2.52-2.13h3.62a.55.55,0,0,1,.52.24ZM521,409.6a1.87,1.87,0,0,0,2.21-1.84v-9.43c0-.06,0-.13,0-.21a2,2,0,0,1-1,.33,1.13,1.13,0,0,0-1.19,1.22v9.68A.53.53,0,0,0,521,409.6ZM521,388v10a3.23,3.23,0,0,1,.5-.24,2.45,2.45,0,0,1,.54-.1,1.12,1.12,0,0,0,1.17-1.19v-6.59a1.67,1.67,0,0,0,0-.32A1.89,1.89,0,0,0,521,388Zm8.14,24.57a1.88,1.88,0,0,0-1.92-2.23h-1.41a2.65,2.65,0,0,1-1.6-.55,3.77,3.77,0,0,1-.63-.69,2.79,2.79,0,0,1-1.12,1,3.21,3.21,0,0,1-1.46.26,1.88,1.88,0,0,0,2,2.22h6.17ZM523.92,388l.45-.32a2.56,2.56,0,0,1,1.39-.43,11.29,11.29,0,0,0,1.93,0,1.85,1.85,0,0,0,1.4-2.18c-1.15,0-2.31,0-3.47,0a1.8,1.8,0,0,0-1.65,1.49A11.93,11.93,0,0,0,523.92,388Zm-3.73-.75a1.89,1.89,0,0,0-2-2.23h-3a.53.53,0,0,0-.25,0,1.88,1.88,0,0,0,1.86,2.21h3.31Zm0,23.1h-3.26a2,2,0,0,0-.48.05A1.87,1.87,0,0,0,515,412.6h3.36a.75.75,0,0,0,.21,0A1.89,1.89,0,0,0,520.19,410.37Z" transform="translate(-500.43 -380.41)"/></g><path class="cls-4" d="M538,409.58" transform="translate(-500.43 -380.41)"/><path class="cls-4" d="M538,410a.38.38,0,0,0,0-.75.38.38,0,0,0,0,.75Z" transform="translate(-500.43 -380.41)"/><path class="cls-4" d="M537.89,409.56" transform="translate(-500.43 -380.41)"/><path class="cls-4" d="M537.89,409.93a.38.38,0,0,0,0-.75.38.38,0,0,0,0,.75Z" transform="translate(-500.43 -380.41)"/><path class="cls-4" d="M537.83,409.57" transform="translate(-500.43 -380.41)"/><path class="cls-4" d="M537.83,410a.38.38,0,0,0,0-.75.38.38,0,0,0,0,.75Z" transform="translate(-500.43 -380.41)"/></svg>